<?xml version="1.0" standalone="no"?>
<!DOCTYPE svg PUBLIC "-//W3C//DTD SVG 20010904//EN"
 "http://www.w3.org/TR/2001/REC-SVG-20010904/DTD/svg10.dtd">
<svg version="1.0" xmlns="http://www.w3.org/2000/svg"
 width="542.000000pt" height="542.000000pt" viewBox="0 0 542.000000 542.000000"
 preserveAspectRatio="xMidYMid meet">
<metadata>
Created by potrace 1.11, written by Peter Selinger 2001-2013
</metadata>
<g transform="translate(0.000000,542.000000) scale(0.100000,-0.100000)"
fill="#000000" stroke="none">
<path d="M1895 3809 c-133 -23 -146 -26 -244 -53 l-84 -22 111 -37 c167 -54
326 -140 457 -248 87 -71 247 -244 385 -414 286 -354 423 -467 629 -520 77
-20 165 -23 294 -12 26 2 21 10 -31 54 -74 62 -144 174 -288 455 -164 321
-238 434 -363 558 -131 130 -246 194 -421 235 -105 25 -315 27 -445 4z"/>
<path d="M3018 3683 c-13 -3 -8 -12 24 -41 104 -94 186 -247 279 -520 91 -267
163 -400 273 -502 40 -39 46 -38 36 6 -5 20 -7 46 -5 57 2 12 6 51 10 87 4 36
13 92 20 125 8 33 17 78 20 100 3 22 8 47 11 55 3 8 5 59 5 113 -2 162 -46
249 -175 344 -122 90 -266 147 -426 169 -25 3 -47 7 -50 8 -3 2 -13 1 -22 -1z"/>
<path d="M1047 3504 c-1 -1 -27 -4 -57 -7 -191 -21 -426 -95 -645 -204 l-97
-48 66 -7 c228 -23 442 -116 691 -302 78 -58 327 -258 353 -283 38 -36 288
-216 362 -260 238 -142 459 -206 705 -204 141 1 177 5 331 37 77 15 364 110
364 119 0 2 -17 3 -38 3 -64 1 -172 31 -248 68 -138 67 -267 171 -525 425
-219 216 -292 281 -409 369 -225 166 -442 259 -670 286 -42 5 -179 11 -183 8z"/>
<path d="M4398 2749 c-154 -31 -267 -84 -513 -239 -239 -152 -359 -222 -475
-281 -340 -171 -636 -243 -1007 -243 -62 0 -113 -2 -113 -5 0 -3 33 -36 73
-74 165 -158 374 -263 592 -297 67 -11 258 -15 300 -7 11 3 43 8 70 11 85 12
206 46 315 88 58 22 110 44 115 48 6 4 37 22 70 40 146 79 266 172 440 341
178 174 213 205 290 258 135 93 265 136 437 144 21 1 38 5 38 9 0 13 -112 90
-194 133 -111 59 -182 79 -318 89 -20 1 -74 -5 -120 -15z"/>
</g>
</svg>
